<?xml version="1.0" standalone="no"?>
<!DOCTYPE svg PUBLIC "-//W3C//DTD SVG 20010904//EN"
 "http://www.w3.org/TR/2001/REC-SVG-20010904/DTD/svg10.dtd">
<svg version="1.0" xmlns="http://www.w3.org/2000/svg"
 width="311.000000pt" height="311.000000pt" viewBox="0 0 311.000000 311.000000"
 preserveAspectRatio="xMidYMid meet">
<metadata>
Created by potrace 1.14, written by Peter Selinger 2001-2017
</metadata>
<g transform="translate(0.000000,311.000000) scale(0.100000,-0.100000)"
fill="#000000" stroke="none">
<path d="M1339 3106 c-2 -2 -23 -6 -46 -9 -190 -27 -414 -116 -603 -243 -96
-64 -118 -81 -200 -157 -233 -217 -409 -540 -466 -857 -18 -97 -25 -389 -12
-476 38 -248 114 -451 246 -654 78 -120 155 -207 304 -341 40 -36 212 -152
251 -170 15 -7 34 -26 42 -43 21 -45 47 -57 131 -61 79 -4 169 -28 193 -53 29
-28 69 -37 162 -35 52 1 146 2 209 2 328 -3 325 -3 344 17 9 8 16 12 16 8 0
-4 6 -1 13 7 16 21 119 51 187 55 30 2 62 5 70 6 19 4 66 37 62 43 -8 13 8 26
90 74 418 246 700 665 765 1136 9 67 10 325 2 395 -71 596 -483 1098 -1055
1289 -173 57 -272 71 -504 71 -108 0 -199 -2 -201 -4z"/>
</g>
</svg>
